<svg height="512pt" viewBox="0 -32 512.03504 512" width="512pt" xmlns="http://www.w3.org/2000/svg"><path d="m504.035156 447.9375h-496.03125c-4.425781 0-7.99999975-3.578125-7.99999975-8v-367.90625c0-4.414062 3.57421875-8 7.99999975-8h496.03125c4.425782 0 8 3.585938 8 8v367.90625c0 4.421875-3.574218 8-8 8zm-488.03125-16h480.03125v-351.90625h-480.03125zm0 0"/><path d="m7.996094 80.03125c-1.671875 0-3.351563-.519531-4.792969-1.597656-3.535156-2.648438-4.257813-7.664063-1.601563-11.203125l48-64.007813c2.65625-3.527344 7.664063-4.253906 11.195313-1.597656 3.535156 2.648438 4.253906 7.664062 1.597656 11.199219l-48 64.007812c-1.558593 2.097657-3.960937 3.199219-6.398437 3.199219zm0 0"/><path d="m504.042969 80.03125c-2.441407 0-4.832031-1.101562-6.40625-3.199219l-48-64.007812c-2.65625-3.535157-1.9375-8.550781 1.597656-11.199219 3.527344-2.664062 8.535156-1.9375 11.191406 1.597656l48 64.007813c2.65625 3.539062 1.9375 8.554687-1.597656 11.203125-1.433594 1.078125-3.113281 1.597656-4.785156 1.597656zm0 0"/><path d="m456.035156 16.023438h-400.03125c-4.425781 0-8-3.582032-8-8 0-4.414063 3.574219-8.0000005 8-8.0000005h400.03125c4.425782 0 8 3.5859375 8 8.0000005 0 4.417968-3.574218 8-8 8zm0 0"/><path d="m407.921875 48.023438h-304.03125c-4.421875 0-8-3.582032-8-8 0-4.414063 3.578125-8 8-8h304.03125c4.425781 0 8 3.585937 8 8 0 4.417968-3.574219 8-8 8zm0 0"/><path d="m255.90625 375.902344c-66.167969 0-120-53.832032-120-120 0-66.160156 53.832031-119.992188 120-119.992188s120 53.832032 120 119.992188c0 66.175781-53.824219 120-120 120zm0-223.980469c-57.34375 0-104 46.644531-104 103.988281 0 57.347656 46.65625 104 104 104s104-46.652344 104-104c0-57.34375-46.65625-103.988281-104-103.988281zm0 0"/><path d="m431.988281 423.9375h-351.9375c-4.421875 0-8-3.578125-8-8 0-4.425781 3.578125-8 8-8h351.9375c4.421875 0 8 3.574219 8 8 0 4.421875-3.578125 8-8 8zm0 0"/><path d="m431.988281 399.9375h-351.9375c-4.421875 0-8-3.578125-8-8 0-4.425781 3.578125-8 8-8h351.9375c4.421875 0 8 3.574219 8 8 0 4.421875-3.578125 8-8 8zm0 0"/><path d="m431.988281 375.9375h-351.9375c-4.421875 0-8-3.578125-8-8 0-4.425781 3.578125-8 8-8h351.9375c4.421875 0 8 3.574219 8 8 0 4.421875-3.578125 8-8 8zm0 0"/><path d="m186.707031 351.9375h-106.65625c-4.421875 0-8-3.578125-8-8 0-4.425781 3.578125-8 8-8h106.65625c4.425781 0 8 3.574219 8 8 0 4.421875-3.574219 8-8 8zm0 0"/><path d="m164.035156 327.9375h-83.984375c-4.421875 0-8-3.578125-8-8 0-4.425781 3.578125-8 8-8h83.984375c4.425782 0 8 3.574219 8 8 0 4.421875-3.574218 8-8 8zm0 0"/><path d="m150.164062 303.9375h-70.113281c-4.421875 0-8-3.578125-8-8 0-4.425781 3.578125-8 8-8h70.113281c4.421876 0 8 3.574219 8 8 0 4.421875-3.585937 8-8 8zm0 0"/><path d="m145.28125 279.9375h-65.230469c-4.421875 0-8-3.578125-8-8 0-4.425781 3.578125-8 8-8h65.230469c4.425781 0 8 3.574219 8 8 0 4.421875-3.574219 8-8 8zm0 0"/><path d="m431.953125 279.9375h-65.246094c-4.425781 0-8-3.578125-8-8 0-4.425781 3.574219-8 8-8h65.246094c4.425781 0 8 3.574219 8 8 0 4.421875-3.574219 8-8 8zm0 0"/><path d="m431.953125 351.9375h-106.671875c-4.421875 0-8-3.578125-8-8 0-4.425781 3.578125-8 8-8h106.671875c4.425781 0 8 3.574219 8 8 0 4.421875-3.574219 8-8 8zm0 0"/><path d="m431.953125 327.9375h-83.980469c-4.425781 0-8-3.578125-8-8 0-4.425781 3.574219-8 8-8h83.980469c4.425781 0 8 3.574219 8 8 0 4.421875-3.574219 8-8 8zm0 0"/><path d="m431.953125 303.9375h-70.109375c-4.425781 0-8-3.578125-8-8 0-4.425781 3.574219-8 8-8h70.109375c4.425781 0 8 3.574219 8 8 0 4.421875-3.574219 8-8 8zm0 0"/><path d="m80.050781 447.9375c-4.421875 0-8-3.578125-8-8v-168c0-4.425781 3.578125-8 8-8 4.425781 0 8 3.574219 8 8v168c0 4.421875-3.574219 8-8 8zm0 0"/><path d="m431.953125 447.9375c-4.421875 0-8-3.578125-8-8v-168c0-4.425781 3.578125-8 8-8 4.425781 0 8 3.574219 8 8v168c0 4.421875-3.574219 8-8 8zm0 0"/><path d="m240.035156 295.921875c-2.046875 0-4.097656-.785156-5.65625-2.347656l-23.96875-23.964844c-3.128906-3.128906-3.128906-8.183594 0-11.3125s8.183594-3.128906 11.3125 0l23.96875 23.96875c3.128906 3.125 3.128906 8.183594 0 11.308594-1.558594 1.570312-3.609375 2.347656-5.65625 2.347656zm0 0"/><path d="m240.035156 295.921875c-2.046875 0-4.097656-.785156-5.65625-2.347656-3.128906-3.125-3.128906-8.183594 0-11.308594l63.984375-63.984375c3.128907-3.128906 8.183594-3.128906 11.3125 0 3.128907 3.125 3.128907 8.183594 0 11.3125l-63.984375 63.980469c-1.558594 1.570312-3.609375 2.347656-5.65625 2.347656zm0 0"/></svg>