<?xml version="1.0" encoding="UTF-8" standalone="no"?>
<svg
   xmlns:dc="http://purl.org/dc/elements/1.1/"
   xmlns:cc="http://creativecommons.org/ns#"
   xmlns:rdf="http://www.w3.org/1999/02/22-rdf-syntax-ns#"
   xmlns:svg="http://www.w3.org/2000/svg"
   xmlns="http://www.w3.org/2000/svg"
   id="svg8"
   version="1.1"
   viewBox="0 0 180.62254 158.00528"
   height="158.00528mm"
   width="180.62254mm">
  <defs
     id="defs2" />
  <metadata
     id="metadata5">
    <rdf:RDF>
      <cc:Work
         rdf:about="">
        <dc:format>image/svg+xml</dc:format>
        <dc:type
           rdf:resource="http://purl.org/dc/dcmitype/StillImage" />
        <dc:title></dc:title>
      </cc:Work>
    </rdf:RDF>
  </metadata>
  <g
     transform="translate(-19.301824,-44.128316)"
     id="layer1">
    <g
       transform="matrix(0.35275365,0,0,0.35275365,19.302095,44.122001)"
       id="g886">
      <path
         d="M 504.03516,447.9375 H 8.003906 c -4.425781,0 -7.99999975,-3.57813 -7.99999975,-8 V 72.03125 c 0,-4.414062 3.57421875,-8 7.99999975,-8 H 504.03516 c 4.42578,0 8,3.585938 8,8 V 439.9375 c 0,4.42187 -3.57422,8 -8,8 z m -488.031254,-16 H 496.03516 V 80.03125 H 16.003906 Z m 0,0"
         id="path815" />
      <path
         d="m 7.996094,80.03125 c -1.671875,0 -3.351563,-0.519531 -4.792969,-1.597656 -3.535156,-2.648438 -4.257813,-7.664063 -1.601563,-11.203125 l 48,-64.007813 c 2.65625,-3.527344 7.664063,-4.253906 11.195313,-1.597656 3.535156,2.648438 4.253906,7.664062 1.597656,11.199219 l -48,64.007812 c -1.558593,2.097657 -3.960937,3.199219 -6.398437,3.199219 z m 0,0"
         id="path817" />
      <path
         d="m 504.04297,80.03125 c -2.44141,0 -4.83203,-1.101562 -6.40625,-3.199219 l -48,-64.007812 c -2.65625,-3.535157 -1.9375,-8.550781 1.59765,-11.199219 3.52735,-2.664062 8.53516,-1.9375 11.19141,1.597656 l 48,64.007813 c 2.65625,3.539062 1.9375,8.554687 -1.59765,11.203125 -1.4336,1.078125 -3.11329,1.597656 -4.78516,1.597656 z m 0,0"
         id="path819" />
      <path
         d="M 456.03516,16.023438 H 56.003906 c -4.425781,0 -8,-3.582032 -8,-8 0,-4.414063 3.574219,-8.0000005 8,-8.0000005 H 456.03516 c 4.42578,0 8,3.5859375 8,8.0000005 0,4.417968 -3.57422,8 -8,8 z m 0,0"
         id="path821" />
      <path
         d="M 407.92187,48.023438 H 103.89063 c -4.42188,0 -8.000005,-3.582032 -8.000005,-8 0,-4.414063 3.578125,-8 8.000005,-8 h 304.03124 c 4.42579,0 8,3.585937 8,8 0,4.417968 -3.57421,8 -8,8 z m 0,0"
         id="path823" />
      <path
         d="m 255.90625,375.90234 c -66.16797,0 -120,-53.83203 -120,-120 0,-66.16015 53.83203,-119.99218 120,-119.99218 66.16797,0 120,53.83203 120,119.99218 0,66.17578 -53.82422,120 -120,120 z m 0,-223.98046 c -57.34375,0 -104,46.64453 -104,103.98828 0,57.34765 46.65625,104 104,104 57.34375,0 104,-46.65235 104,-104 0,-57.34375 -46.65625,-103.98828 -104,-103.98828 z m 0,0"
         id="path825" />
      <path
         d="M 431.98828,423.9375 H 80.050781 c -4.421875,0 -8,-3.57813 -8,-8 0,-4.42578 3.578125,-8 8,-8 H 431.98828 c 4.42188,0 8,3.57422 8,8 0,4.42187 -3.57812,8 -8,8 z m 0,0"
         id="path827" />
      <path
         d="M 431.98828,399.9375 H 80.050781 c -4.421875,0 -8,-3.57813 -8,-8 0,-4.42578 3.578125,-8 8,-8 H 431.98828 c 4.42188,0 8,3.57422 8,8 0,4.42187 -3.57812,8 -8,8 z m 0,0"
         id="path829" />
      <path
         d="M 431.98828,375.9375 H 80.050781 c -4.421875,0 -8,-3.57813 -8,-8 0,-4.42578 3.578125,-8 8,-8 H 431.98828 c 4.42188,0 8,3.57422 8,8 0,4.42187 -3.57812,8 -8,8 z m 0,0"
         id="path831" />
      <path
         d="M 186.70703,351.9375 H 80.050781 c -4.421875,0 -8,-3.57813 -8,-8 0,-4.42578 3.578125,-8 8,-8 H 186.70703 c 4.42578,0 8,3.57422 8,8 0,4.42187 -3.57422,8 -8,8 z m 0,0"
         id="path833" />
      <path
         d="M 164.03516,327.9375 H 80.050781 c -4.421875,0 -8,-3.57813 -8,-8 0,-4.42578 3.578125,-8 8,-8 h 83.984379 c 4.42578,0 8,3.57422 8,8 0,4.42187 -3.57422,8 -8,8 z m 0,0"
         id="path835" />
      <path
         d="M 150.16406,303.9375 H 80.050781 c -4.421875,0 -8,-3.57813 -8,-8 0,-4.42578 3.578125,-8 8,-8 h 70.113279 c 4.42188,0 8,3.57422 8,8 0,4.42187 -3.58594,8 -8,8 z m 0,0"
         id="path837" />
      <path
         d="M 145.28125,279.9375 H 80.050781 c -4.421875,0 -8,-3.57813 -8,-8 0,-4.42578 3.578125,-8 8,-8 h 65.230469 c 4.42578,0 8,3.57422 8,8 0,4.42187 -3.57422,8 -8,8 z m 0,0"
         id="path839" />
      <path
         d="m 431.95312,279.9375 h -65.24609 c -4.42578,0 -8,-3.57813 -8,-8 0,-4.42578 3.57422,-8 8,-8 h 65.24609 c 4.42579,0 8,3.57422 8,8 0,4.42187 -3.57421,8 -8,8 z m 0,0"
         id="path841" />
      <path
         d="M 431.95312,351.9375 H 325.28125 c -4.42188,0 -8,-3.57813 -8,-8 0,-4.42578 3.57812,-8 8,-8 h 106.67187 c 4.42579,0 8,3.57422 8,8 0,4.42187 -3.57421,8 -8,8 z m 0,0"
         id="path843" />
      <path
         d="m 431.95312,327.9375 h -83.98046 c -4.42578,0 -8,-3.57813 -8,-8 0,-4.42578 3.57422,-8 8,-8 h 83.98046 c 4.42579,0 8,3.57422 8,8 0,4.42187 -3.57421,8 -8,8 z m 0,0"
         id="path845" />
      <path
         d="m 431.95312,303.9375 h -70.10937 c -4.42578,0 -8,-3.57813 -8,-8 0,-4.42578 3.57422,-8 8,-8 h 70.10937 c 4.42579,0 8,3.57422 8,8 0,4.42187 -3.57421,8 -8,8 z m 0,0"
         id="path847" />
      <path
         d="m 80.050781,447.9375 c -4.421875,0 -8,-3.57813 -8,-8 v -168 c 0,-4.42578 3.578125,-8 8,-8 4.425781,0 8,3.57422 8,8 v 168 c 0,4.42187 -3.574219,8 -8,8 z m 0,0"
         id="path849" />
      <path
         d="m 431.95312,447.9375 c -4.42187,0 -8,-3.57813 -8,-8 v -168 c 0,-4.42578 3.57813,-8 8,-8 4.42579,0 8,3.57422 8,8 v 168 c 0,4.42187 -3.57421,8 -8,8 z m 0,0"
         id="path851" />
      <g
         transform="matrix(0.37123456,0,0,0.35011966,185.24431,188.6056)"
         id="g946">
        <g
           id="g890">
	<path
   style="stroke-width:0.91742325"
   d="M 300.78568,161.25152 H 284.1821 v -48.17099 c 0,-49.222319 -42.02776,-89.276301 -93.68439,-89.276301 -51.67542,0 -93.695663,40.048609 -93.695663,89.276301 v 48.17099 H 80.204118 c -9.552745,0 -17.292499,7.3782 -17.292499,16.4767 v 163.47383 c 0,9.0985 7.739754,16.4758 17.292499,16.4758 H 300.78662 c 9.53301,0 17.2925,-7.3773 17.2925,-16.4758 V 177.72822 c 0,-9.0985 -7.76043,-16.4767 -17.29344,-16.4767 z M 131.38329,113.08053 c 0,-31.062938 26.51347,-56.325594 59.11348,-56.325594 32.5925,0 59.10691,25.262656 59.10691,56.325594 v 48.17099 H 131.38329 Z"
   id="path888" />

</g>
        <g
           id="g892">
</g>
        <g
           id="g894">
</g>
        <g
           id="g896">
</g>
        <g
           id="g898">
</g>
        <g
           id="g900">
</g>
        <g
           id="g902">
</g>
        <g
           id="g904">
</g>
        <g
           id="g906">
</g>
        <g
           id="g908">
</g>
        <g
           id="g910">
</g>
        <g
           id="g912">
</g>
        <g
           id="g914">
</g>
        <g
           id="g916">
</g>
        <g
           id="g918">
</g>
        <g
           id="g920">
</g>
      </g>
    </g>
  </g>
</svg>
